<svg width="96" height="96" viewBox="0 0 96 96" fill="none" xmlns="http://www.w3.org/2000/svg">
<path fill-rule="evenodd" clip-rule="evenodd" d="M9.55496 27.8017C9.66445 26.9805 10.4189 26.4036 11.24 26.5131L18.74 27.5131C19.1005 27.5611 19.4312 27.7385 19.6707 28.0122L33.6707 44.0122C34.2162 44.6356 34.153 45.5833 33.5296 46.1288C32.9061 46.6743 31.9585 46.6111 31.4129 45.9877L17.7844 30.4122L10.8436 29.4868C10.0224 29.3773 9.44547 28.6228 9.55496 27.8017Z" fill="#84390F"/>
<path fill-rule="evenodd" clip-rule="evenodd" d="M19.6465 18.5055C20.1957 18.5633 20.5941 19.0554 20.5363 19.6046L19.5363 29.1046C19.4785 29.6539 18.9864 30.0523 18.4371 29.9945C17.8879 29.9366 17.4895 29.4445 17.5473 28.8953L18.5473 19.3953C18.6051 18.846 19.0972 18.4476 19.6465 18.5055Z" fill="#84390F"/>
<path d="M72.1989 72.3233C71.8221 85.92 60.4385 90.6261 46.5677 90.2417C32.6969 89.8573 21.5914 84.528 21.9682 70.9313C22.345 57.3346 33.895 46.6239 47.7658 47.0083C61.6366 47.3927 72.5757 58.7266 72.1989 72.3233Z" fill="#D0F0F2"/>
<path fill-rule="evenodd" clip-rule="evenodd" d="M65.4866 88.2318C60.3929 91.3452 53.635 92.4382 46.5123 92.2409C39.3895 92.0435 32.7025 90.5778 27.7891 87.1871C22.751 83.7104 19.7624 78.329 19.9689 70.8758C20.3774 56.1375 32.884 44.595 47.8212 45.009C62.7584 45.4229 74.6066 57.6404 74.1981 72.3787C73.9916 79.8318 70.7095 85.0394 65.4866 88.2318ZM46.5677 90.2416C60.4385 90.626 71.8221 85.92 72.1989 72.3233C72.5757 58.7265 61.6366 47.3926 47.7658 47.0082C33.895 46.6238 22.345 57.3345 21.9682 70.9312C21.5914 84.5279 32.6968 89.8572 46.5677 90.2416Z" fill="#5290BD"/>
<path fill-rule="evenodd" clip-rule="evenodd" d="M31.8061 57.1311C32.5277 57.9674 32.4346 59.2303 31.5982 59.9519C30.4495 60.9429 29.3655 62.9023 28.8014 65.5158C28.2472 68.0837 28.25 71.0493 29.0302 73.8358C29.328 74.8994 28.7072 76.0031 27.6436 76.301C26.5799 76.5988 25.4762 75.978 25.1784 74.9143C24.2086 71.4508 24.2114 67.8226 24.8915 64.6718C25.5618 61.5665 26.9465 58.6822 28.9853 56.9232C29.8217 56.2017 31.0846 56.2947 31.8061 57.1311Z" fill="#DFFDFF"/>
<path fill-rule="evenodd" clip-rule="evenodd" d="M44.008 90.1114C55.3012 89.1996 63.8728 84.0916 64.1989 72.3234C64.5454 59.82 55.3227 49.2301 43.0507 47.3089C44.582 47.0682 46.1583 46.9638 47.7658 47.0083C61.6366 47.3927 72.5757 58.7266 72.1989 72.3234C71.8221 85.9201 60.4385 90.6261 46.5677 90.2417C45.703 90.2178 44.8491 90.1746 44.008 90.1114Z" fill="#A6E1E5"/>
<path d="M65.171 68.7668C65.171 69.3583 64.6916 69.8378 64.1001 69.8378C63.5086 69.8378 63.0292 69.3583 63.0292 68.7668C63.0292 68.1754 63.5086 67.6959 64.1001 67.6959C64.6916 67.6959 65.171 68.1754 65.171 68.7668Z" fill="#81CFD2"/>
<path d="M69.5082 71.2835C69.5082 72.0819 68.8609 72.7292 68.0625 72.7292C67.264 72.7292 66.6167 72.0819 66.6167 71.2835C66.6167 70.485 67.264 69.8378 68.0625 69.8378C68.8609 69.8378 69.5082 70.485 69.5082 71.2835Z" fill="#81CFD2"/>
<path d="M68.7853 66.5849C68.7853 67.1837 68.2999 67.6692 67.701 67.6692C67.1022 67.6692 66.6167 67.1837 66.6167 66.5849C66.6167 65.9861 67.1022 65.5006 67.701 65.5006C68.2999 65.5006 68.7853 65.9861 68.7853 66.5849Z" fill="#81CFD2"/>
<path d="M69.6668 77.4948C69.6668 78.7368 68.6599 79.7437 67.4179 79.7437C66.1758 79.7437 65.169 78.7368 65.169 77.4948C65.169 76.2527 66.1758 75.2458 67.4179 75.2458C68.6599 75.2458 69.6668 76.2527 69.6668 77.4948Z" fill="#81CFD2"/>
<path d="M65.171 73.4521C65.171 74.2505 64.5237 74.8978 63.7253 74.8978C62.9268 74.8978 62.2796 74.2505 62.2796 73.4521C62.2796 72.6536 62.9268 72.0063 63.7253 72.0063C64.5237 72.0063 65.171 72.6536 65.171 73.4521Z" fill="#81CFD2"/>
<path d="M65.8541 82.18C65.8541 82.6643 65.4614 83.057 64.9771 83.057C64.4927 83.057 64.1001 82.6643 64.1001 82.18C64.1001 81.6956 64.4927 81.303 64.9771 81.303C65.4614 81.303 65.8541 81.6956 65.8541 82.18Z" fill="#81CFD2"/>
<path d="M62.813 84.9375C62.813 85.736 62.1657 86.3833 61.3673 86.3833C60.5688 86.3833 59.9215 85.736 59.9215 84.9375C59.9215 84.1391 60.5688 83.4918 61.3673 83.4918C62.1657 83.4918 62.813 84.1391 62.813 84.9375Z" fill="#81CFD2"/>
<path d="M63.0292 80.0114C63.0292 80.8098 62.3819 81.4571 61.5834 81.4571C60.785 81.4571 60.1377 80.8098 60.1377 80.0114C60.1377 79.2129 60.785 78.5657 61.5834 78.5657C62.3819 78.5657 63.0292 79.2129 63.0292 80.0114Z" fill="#81CFD2"/>
<path d="M57.7282 86.9053C57.7282 87.5042 57.2428 87.9896 56.6439 87.9896C56.0451 87.9896 55.5596 87.5042 55.5596 86.9053C55.5596 86.3065 56.0451 85.821 56.6439 85.821C57.2428 85.821 57.7282 86.3065 57.7282 86.9053Z" fill="#81CFD2"/>
<path d="M66.0418 44.6875C66.0418 52.7682 58.8636 58.375 47.5418 58.375C36.22 58.375 29.0418 52.7682 29.0418 44.6875C29.0418 36.6068 36.22 31 47.5418 31C58.8636 31 66.0418 36.6068 66.0418 44.6875Z" fill="#D0F0F2"/>
<path fill-rule="evenodd" clip-rule="evenodd" d="M62.2389 56.1605C58.5943 58.899 53.5107 60.375 47.5418 60.375C41.5729 60.375 36.4893 58.899 32.8447 56.1605C29.155 53.388 27.0418 49.3848 27.0418 44.6875C27.0418 39.9902 29.155 35.987 32.8447 33.2145C36.4893 30.476 41.5729 29 47.5418 29C53.5107 29 58.5943 30.476 62.2389 33.2145C65.9287 35.987 68.0418 39.9902 68.0418 44.6875C68.0418 49.3848 65.9287 53.388 62.2389 56.1605ZM47.5418 58.375C58.8636 58.375 66.0418 52.7682 66.0418 44.6875C66.0418 36.6068 58.8636 31 47.5418 31C36.22 31 29.0418 36.6068 29.0418 44.6875C29.0418 52.7682 36.22 58.375 47.5418 58.375Z" fill="#5290BD"/>
<path fill-rule="evenodd" clip-rule="evenodd" d="M39.8398 35.4327C40.1532 36.4919 39.5485 37.6045 38.4894 37.9179C36.3301 38.5567 34.2504 41.8012 35.4392 45.3676C35.7885 46.4155 35.2222 47.5481 34.1743 47.8974C33.1264 48.2467 31.9938 47.6804 31.6445 46.6325C29.8332 41.1988 32.7535 35.4434 37.3546 34.0822C38.4138 33.7688 39.5265 34.3735 39.8398 35.4327Z" fill="#DFFDFF"/>
<path fill-rule="evenodd" clip-rule="evenodd" d="M43.5418 58.1243C52.5274 56.9522 58.0418 51.7701 58.0418 44.6875C58.0418 37.6049 52.5274 32.4228 43.5418 31.2507C44.8081 31.0855 46.1434 31 47.5418 31C58.8636 31 66.0418 36.6068 66.0418 44.6875C66.0418 52.7682 58.8636 58.375 47.5418 58.375C46.1433 58.375 44.8081 58.2895 43.5418 58.1243Z" fill="#A5E1E4"/>
<path d="M60.3543 19.3437C60.3543 27.2953 55.3829 32.8125 47.5418 32.8125C39.7007 32.8125 34.7293 27.2953 34.7293 19.3437C34.7293 11.3922 39.7007 5.875 47.5418 5.875C55.3829 5.875 60.3543 11.3922 60.3543 19.3437Z" fill="#D0F0F2"/>
<path fill-rule="evenodd" clip-rule="evenodd" d="M58.3482 30.4272C55.7066 33.2473 51.9534 34.8125 47.5418 34.8125C43.1302 34.8125 39.377 33.2473 36.7355 30.4272C34.1071 27.6212 32.7293 23.7353 32.7293 19.3437C32.7293 14.9522 34.1071 11.0663 36.7355 8.26028C39.377 5.44015 43.1302 3.875 47.5418 3.875C51.9534 3.875 55.7066 5.44015 58.3482 8.26028C60.9765 11.0663 62.3543 14.9522 62.3543 19.3437C62.3543 23.7353 60.9765 27.6212 58.3482 30.4272ZM47.5418 32.8125C55.3829 32.8125 60.3543 27.2953 60.3543 19.3437C60.3543 11.3922 55.3829 5.875 47.5418 5.875C39.7007 5.875 34.7293 11.3922 34.7293 19.3437C34.7293 27.2953 39.7007 32.8125 47.5418 32.8125Z" fill="#5290BD"/>
<path fill-rule="evenodd" clip-rule="evenodd" d="M43.5418 31.7387C51.3829 31.7387 56.3543 26.2215 56.3543 18.2699C56.3543 12.4857 53.7236 7.9896 49.2713 5.96838C56.1067 6.72373 60.3543 11.9937 60.3543 19.3437C60.3543 27.2953 55.3829 32.8125 47.5418 32.8125C45.4046 32.8125 43.4806 32.4026 41.8123 31.6453C42.3718 31.7071 42.9486 31.7387 43.5418 31.7387Z" fill="#A5E1E4"/>
<path d="M52.5529 15.3636C52.892 16.705 52.0985 18.0624 50.7807 18.3954C49.4628 18.7285 48.1197 17.9111 47.7807 16.5698C47.4416 15.2284 48.2351 13.871 49.5529 13.5379C50.8708 13.2048 52.2139 14.0222 52.5529 15.3636Z" fill="#074894"/>
<path fill-rule="evenodd" clip-rule="evenodd" d="M54.492 14.8735C55.0934 17.2532 53.6917 19.7226 51.2708 20.3344C48.8498 20.9463 46.4431 19.4396 45.8417 17.0598C45.2402 14.6801 46.6419 12.2107 49.0629 11.5988C51.4838 10.987 53.8905 12.4937 54.492 14.8735ZM50.7807 18.3954C52.0985 18.0623 52.892 16.7049 52.5529 15.3636C52.2139 14.0222 50.8708 13.2048 49.5529 13.5379C48.2351 13.8709 47.4416 15.2284 47.7807 16.5697C48.1197 17.9111 49.4628 18.7285 50.7807 18.3954Z" fill="#F7FFFF"/>
<path d="M44.3219 15.6642C44.1084 16.8396 43.0358 17.629 41.9261 17.4275C40.8164 17.2259 40.0899 16.1097 40.3034 14.9344C40.5168 13.7591 41.5895 12.9697 42.6991 13.1712C43.8088 13.3727 44.5354 14.4889 44.3219 15.6642Z" fill="#074894"/>
<path fill-rule="evenodd" clip-rule="evenodd" d="M46.2897 16.0216C45.8985 18.1757 43.8702 19.8133 41.5687 19.3953C39.2672 18.9773 37.9444 16.7311 38.3356 14.577C38.7268 12.423 40.755 10.7854 43.0565 11.2034C45.358 11.6214 46.6809 13.8676 46.2897 16.0216ZM41.9261 17.4275C43.0358 17.629 44.1085 16.8396 44.3219 15.6643C44.5354 14.4889 43.8088 13.3727 42.6992 13.1712C41.5895 12.9697 40.5168 13.7591 40.3034 14.9344C40.0899 16.1097 40.8164 17.2259 41.9261 17.4275Z" fill="#F7FFFF"/>
<path fill-rule="evenodd" clip-rule="evenodd" d="M78.8706 23.0272C79.9601 23.2087 80.6962 24.2392 80.5146 25.3287L79.0146 34.3287C78.928 34.8484 78.6399 35.3129 78.2128 35.6213L60.2128 48.6213C59.3173 49.268 58.0672 49.0664 57.4204 48.1709C56.7737 47.2755 56.9754 46.0253 57.8708 45.3786L75.2042 32.86L76.569 24.6711C76.7506 23.5816 77.7811 22.8456 78.8706 23.0272Z" fill="#5E2D18"/>
<path fill-rule="evenodd" clip-rule="evenodd" d="M75.5418 35C75.5418 34.1716 76.2134 33.5 77.0418 33.5H86.0418C86.8702 33.5 87.5418 34.1716 87.5418 35C87.5418 35.8284 86.8702 36.5 86.0418 36.5H77.0418C76.2134 36.5 75.5418 35.8284 75.5418 35Z" fill="#5E2D18"/>
<path fill-rule="evenodd" clip-rule="evenodd" d="M77.3199 26.0707C77.5915 26.1208 77.7711 26.3815 77.721 26.653L76.4085 33.778C76.3856 33.9026 76.3162 34.0139 76.2144 34.0893L66.3394 41.4018C66.1174 41.5661 65.8043 41.5194 65.64 41.2975C65.4757 41.0756 65.5223 40.7625 65.7443 40.5981L75.4608 33.403L76.7376 26.4719C76.7876 26.2003 77.0483 26.0207 77.3199 26.0707Z" fill="#AD6034"/>
<path d="M41.9923 42.7747C41.5047 44.3943 39.9573 45.3604 38.5361 44.9325C37.1148 44.5047 36.3579 42.8449 36.8454 41.2254C37.333 39.6058 38.8804 38.6397 40.3016 39.0675C41.7229 39.4954 42.4798 41.1551 41.9923 42.7747Z" fill="#08DDAA"/>
<path fill-rule="evenodd" clip-rule="evenodd" d="M43.9074 43.3513C43.1745 45.7859 40.6659 47.6624 37.9596 46.8477C35.2533 46.033 34.1974 43.0835 34.9303 40.6489C35.6632 38.2143 38.1718 36.3378 40.8781 37.1525C43.5845 37.9672 44.6403 40.9167 43.9074 43.3513ZM38.5361 44.9326C39.9573 45.3604 41.5047 44.3943 41.9923 42.7748C42.4798 41.1552 41.7229 39.4954 40.3016 39.0676C38.8804 38.6397 37.333 39.6058 36.8454 41.2254C36.3579 42.845 37.1148 44.5047 38.5361 44.9326Z" fill="#EEFEFF"/>
<path d="M37.371 67.6504C37.2767 69.3392 35.9989 70.6411 34.5169 70.5583C33.0349 70.4755 31.91 69.0394 32.0043 67.3507C32.0987 65.662 33.3765 64.3601 34.8584 64.4428C36.3404 64.5256 37.4653 65.9617 37.371 67.6504Z" fill="#08DDAA"/>
<path fill-rule="evenodd" clip-rule="evenodd" d="M39.3679 67.7619C39.2261 70.3005 37.2272 72.7128 34.4054 72.5552C31.5835 72.3976 29.8657 69.7778 30.0074 67.2392C30.1492 64.7006 32.1481 62.2884 34.9699 62.4459C37.7918 62.6035 39.5096 65.2234 39.3679 67.7619ZM34.5169 70.5583C35.9988 70.6411 37.2767 69.3392 37.371 67.6504C37.4653 65.9617 36.3404 64.5256 34.8584 64.4428C33.3765 64.3601 32.0986 65.662 32.0043 67.3507C31.91 69.0395 33.0349 70.4755 34.5169 70.5583Z" fill="#EEFEFF"/>
<path d="M47.8702 20.0607C46.67 18.0092 44.6037 18.5332 43.6852 19.0542C39.9049 21.4967 34.7348 25.8656 33.7428 26.6348C32.3387 27.7237 33.3001 28.784 34.3161 28.5838C35.2836 28.3932 42.9767 26.4998 47.7052 23.8639C48.5634 23.3855 48.9812 21.9597 47.8702 20.0607Z" fill="#E58B04"/>
<path fill-rule="evenodd" clip-rule="evenodd" d="M43.1667 18.1985L43.1918 18.1842C43.7739 17.8541 44.7183 17.5161 45.749 17.5957C46.8438 17.6802 47.961 18.2355 48.7333 19.5556C49.967 21.6643 49.7779 23.8533 48.1921 24.7373C45.737 26.1059 42.5535 27.2624 39.8996 28.0949C37.2412 28.9288 35.0392 29.4605 34.5094 29.5649C33.6585 29.7325 32.667 29.4018 32.2311 28.5469C31.7261 27.5567 32.2424 26.5329 33.13 25.8445C33.3077 25.7067 33.6453 25.4316 34.1017 25.0596C36.0226 23.4943 40.05 20.2122 43.1425 18.2141L43.1667 18.1985ZM43.6852 19.0541C44.6037 18.5332 46.67 18.0091 47.8702 20.0606C48.9812 21.9596 48.5634 23.3854 47.7052 23.8638C42.9767 26.4998 35.2836 28.3931 34.3161 28.5837C33.3001 28.7839 32.3387 27.7236 33.7428 26.6347C33.9392 26.4825 34.2992 26.1892 34.7798 25.7977C36.7271 24.2114 40.6532 21.0131 43.6852 19.0541Z" fill="#B36013"/>
<path fill-rule="evenodd" clip-rule="evenodd" d="M43.9101 19.3511C44.0762 19.5718 44.0319 19.8852 43.8112 20.0513L34.9027 26.7549C34.682 26.921 34.3685 26.8767 34.2025 26.656C34.0365 26.4354 34.0807 26.1219 34.3014 25.9559L43.21 19.2522C43.4306 19.0862 43.7441 19.1305 43.9101 19.3511Z" fill="#FFB444"/>
<path fill-rule="evenodd" clip-rule="evenodd" d="M42.7403 18.7115C42.9159 18.4984 43.231 18.4679 43.4441 18.6434C44.4141 19.4423 46.301 21.8218 46.4415 25.1929C46.453 25.4688 46.2387 25.7018 45.9628 25.7133C45.6869 25.7248 45.4539 25.5105 45.4424 25.2346C45.316 22.2014 43.6044 20.0709 42.8084 19.4153C42.5952 19.2398 42.5648 18.9247 42.7403 18.7115Z" fill="#8E4808"/>
<path fill-rule="evenodd" clip-rule="evenodd" d="M39.1024 21.4755C39.2827 21.2663 39.5984 21.2428 39.8076 21.4231C40.6698 22.1661 42.3385 24.2927 42.1388 26.9637C42.1182 27.2391 41.8783 27.4456 41.6029 27.4251C41.3276 27.4045 41.121 27.1645 41.1416 26.8892C41.3087 24.6538 39.8848 22.8097 39.1548 22.1806C38.9456 22.0004 38.9222 21.6847 39.1024 21.4755Z" fill="#8E4808"/>
<path fill-rule="evenodd" clip-rule="evenodd" d="M35.4388 24.3631C35.6194 24.1542 35.9351 24.1314 36.144 24.312C36.8007 24.8799 38.0654 26.499 37.9062 28.5468C37.8848 28.8222 37.6443 29.028 37.369 29.0066C37.0937 28.9852 36.8879 28.7447 36.9093 28.4693C37.0347 26.8558 36.0124 25.5202 35.4899 25.0684C35.281 24.8877 35.2581 24.572 35.4388 24.3631Z" fill="#8E4808"/>
</svg>
