<svg width="96" height="96" viewBox="0 0 96 96" fill="none" xmlns="http://www.w3.org/2000/svg">
<path d="M50.8125 14.75C50.8125 16.1997 49.5953 17.375 48.0938 17.375C46.5922 17.375 45.375 16.1997 45.375 14.75C45.375 13.3003 46.5922 12.125 48.0938 12.125C49.5953 12.125 50.8125 13.3003 50.8125 14.75Z" fill="#D9A00D"/>
<path d="M43.7547 18.7172C43.8954 17.7319 44.7393 17 45.7346 17H50.2654C51.2607 17 52.1045 17.7319 52.2453 18.7172L53.6739 28.7172C53.846 29.922 52.9111 31 51.694 31H44.306C43.0889 31 42.154 29.922 42.3261 28.7172L43.7547 18.7172Z" fill="#97651A"/>
<path fill-rule="evenodd" clip-rule="evenodd" d="M45.7346 15H50.2654C52.256 15 53.9437 16.4637 54.2252 18.4343L55.6538 28.4343C55.998 30.8441 54.1282 33 51.694 33H44.306C41.8718 33 40.002 30.844 40.3462 28.4343L41.7748 18.4343C42.0563 16.4637 43.744 15 45.7346 15ZM45.7346 17C44.7393 17 43.8954 17.7319 43.7547 18.7172L42.3261 28.7172C42.154 29.922 43.0889 31 44.306 31H51.694C52.9111 31 53.846 29.922 53.6739 28.7172L52.2453 18.7172C52.1046 17.7319 51.2607 17 50.2654 17H45.7346Z" fill="#673406"/>
<path fill-rule="evenodd" clip-rule="evenodd" d="M46.1708 17.7022C46.715 17.7966 47.0796 18.3142 46.9853 18.8583L45.7666 25.8896C45.6722 26.4337 45.1546 26.7984 44.6105 26.7041C44.0663 26.6098 43.7016 26.0922 43.7959 25.548L45.0147 18.5168C45.109 17.9726 45.6266 17.6079 46.1708 17.7022Z" fill="#CA9304"/>
<path d="M78 54C78 70.5685 64.5685 84 48 84C31.4315 84 18 70.5685 18 54C18 37.4315 31.4315 24 48 24C64.5685 24 78 37.4315 78 54Z" fill="#FCE72D"/>
<path fill-rule="evenodd" clip-rule="evenodd" d="M80 54C80 71.6731 65.6731 86 48 86C30.3269 86 16 71.6731 16 54C16 36.3269 30.3269 22 48 22C65.6731 22 80 36.3269 80 54ZM48 84C64.5685 84 78 70.5685 78 54C78 37.4315 64.5685 24 48 24C31.4315 24 18 37.4315 18 54C18 70.5685 31.4315 84 48 84Z" fill="#D9A00D"/>
<path fill-rule="evenodd" clip-rule="evenodd" d="M36 76C52.5685 76 66 62.5686 66 46C66 38.1989 63.0224 31.0932 58.1417 25.7576C69.7195 29.9157 78 40.9908 78 54C78 70.5686 64.5686 84 48 84C39.2326 84 31.3436 80.2391 25.8583 74.2425C29.0261 75.3802 32.4406 76 36 76Z" fill="#FDDA23"/>
<path d="M51.9833 43.3125C51.9833 50.5267 46.135 56.375 38.9208 56.375C31.7066 56.375 25.8583 50.5267 25.8583 43.3125C25.8583 36.0983 31.7066 30.25 38.9208 30.25C46.135 30.25 51.9833 36.0983 51.9833 43.3125Z" fill="#F9F371"/>
<path d="M66.3125 71.75C66.3125 72.3023 65.8648 72.75 65.3125 72.75C64.7602 72.75 64.3125 72.3023 64.3125 71.75C64.3125 71.1977 64.7602 70.75 65.3125 70.75C65.8648 70.75 66.3125 71.1977 66.3125 71.75Z" fill="#F8BC21"/>
<path d="M68.5 66.375C68.5 67.1689 67.8564 67.8125 67.0625 67.8125C66.2686 67.8125 65.625 67.1689 65.625 66.375C65.625 65.5811 66.2686 64.9375 67.0625 64.9375C67.8564 64.9375 68.5 65.5811 68.5 66.375Z" fill="#F8BC21"/>
<path d="M74.1875 62.75C74.1875 63.5439 73.5439 64.1875 72.75 64.1875C71.9561 64.1875 71.3125 63.5439 71.3125 62.75C71.3125 61.9561 71.9561 61.3125 72.75 61.3125C73.5439 61.3125 74.1875 61.9561 74.1875 62.75Z" fill="#F8BC21"/>
<path d="M62.6875 68.6875C62.6875 69.4814 62.0439 70.125 61.25 70.125C60.4561 70.125 59.8125 69.4814 59.8125 68.6875C59.8125 67.8936 60.4561 67.25 61.25 67.25C62.0439 67.25 62.6875 67.8936 62.6875 68.6875Z" fill="#F8BC21"/>
<path d="M62.6875 76.0625C62.6875 76.8564 62.0439 77.5 61.25 77.5C60.4561 77.5 59.8125 76.8564 59.8125 76.0625C59.8125 75.2686 60.4561 74.625 61.25 74.625C62.0439 74.625 62.6875 75.2686 62.6875 76.0625Z" fill="#F8BC21"/>
<path d="M54.6875 78.125C54.6875 78.5737 54.3237 78.9375 53.875 78.9375C53.4263 78.9375 53.0625 78.5737 53.0625 78.125C53.0625 77.6763 53.4263 77.3125 53.875 77.3125C54.3237 77.3125 54.6875 77.6763 54.6875 78.125Z" fill="#F8BC21"/>
<path d="M59 71.9375C59 72.3862 58.6362 72.75 58.1875 72.75C57.7388 72.75 57.375 72.3862 57.375 71.9375C57.375 71.4888 57.7388 71.125 58.1875 71.125C58.6362 71.125 59 71.4888 59 71.9375Z" fill="#F8BC21"/>
<path d="M66.125 61.9375C66.125 62.3862 65.7612 62.75 65.3125 62.75C64.8638 62.75 64.5 62.3862 64.5 61.9375C64.5 61.4888 64.8638 61.125 65.3125 61.125C65.7612 61.125 66.125 61.4888 66.125 61.9375Z" fill="#F8BC21"/>
<path d="M40.5458 79.375C40.5458 79.8237 40.182 80.1875 39.7333 80.1875C39.2845 80.1875 38.9208 79.8237 38.9208 79.375C38.9208 78.9263 39.2845 78.5625 39.7333 78.5625C40.182 78.5625 40.5458 78.9263 40.5458 79.375Z" fill="#F8BC21"/>
<path d="M75 56.375C75 56.8237 74.6362 57.1875 74.1875 57.1875C73.7388 57.1875 73.375 56.8237 73.375 56.375C73.375 55.9263 73.7388 55.5625 74.1875 55.5625C74.6362 55.5625 75 55.9263 75 56.375Z" fill="#F8BC21"/>
<path d="M70.9062 52.25C70.9062 52.6987 70.5425 53.0625 70.0938 53.0625C69.645 53.0625 69.2812 52.6987 69.2812 52.25C69.2812 51.8013 69.645 51.4375 70.0938 51.4375C70.5425 51.4375 70.9062 51.8013 70.9062 52.25Z" fill="#F8BC21"/>
<path d="M73.5625 44.6875C73.5625 45.1362 73.1987 45.5 72.75 45.5C72.3013 45.5 71.9375 45.1362 71.9375 44.6875C71.9375 44.2388 72.3013 43.875 72.75 43.875C73.1987 43.875 73.5625 44.2388 73.5625 44.6875Z" fill="#F8BC21"/>
<path d="M58.1875 79.375C58.1875 79.8237 57.8237 80.1875 57.375 80.1875C56.9263 80.1875 56.5625 79.8237 56.5625 79.375C56.5625 78.9263 56.9263 78.5625 57.375 78.5625C57.8237 78.5625 58.1875 78.9263 58.1875 79.375Z" fill="#F8BC21"/>
<path d="M50.875 79.75C50.875 80.1987 50.5112 80.5625 50.0625 80.5625C49.6138 80.5625 49.25 80.1987 49.25 79.75C49.25 79.3013 49.6138 78.9375 50.0625 78.9375C50.5112 78.9375 50.875 79.3013 50.875 79.75Z" fill="#F8BC21"/>
<path d="M55.5 73.8125C55.5 74.2612 55.1362 74.625 54.6875 74.625C54.2388 74.625 53.875 74.2612 53.875 73.8125C53.875 73.3638 54.2388 73 54.6875 73C55.1362 73 55.5 73.3638 55.5 73.8125Z" fill="#F8BC21"/>
<path d="M46.3125 79.75C46.3125 80.1987 45.9487 80.5625 45.5 80.5625C45.0513 80.5625 44.6875 80.1987 44.6875 79.75C44.6875 79.3013 45.0513 78.9375 45.5 78.9375C45.9487 78.9375 46.3125 79.3013 46.3125 79.75Z" fill="#F8BC21"/>
<path d="M44.6875 76.4688C44.6875 76.9175 44.3237 77.2812 43.875 77.2812C43.4263 77.2812 43.0625 76.9175 43.0625 76.4688C43.0625 76.02 43.4263 75.6562 43.875 75.6562C44.3237 75.6562 44.6875 76.02 44.6875 76.4688Z" fill="#F8BC21"/>
<path d="M55.0625 69.5C55.0625 69.9487 54.6987 70.3125 54.25 70.3125C53.8013 70.3125 53.4375 69.9487 53.4375 69.5C53.4375 69.0513 53.8013 68.6875 54.25 68.6875C54.6987 68.6875 55.0625 69.0513 55.0625 69.5Z" fill="#F8BC21"/>
<path d="M69.5625 70.75C69.5625 71.1987 69.1987 71.5625 68.75 71.5625C68.3013 71.5625 67.9375 71.1987 67.9375 70.75C67.9375 70.3013 68.3013 69.9375 68.75 69.9375C69.1987 69.9375 69.5625 70.3013 69.5625 70.75Z" fill="#F8BC21"/>
<path d="M52.125 76.4688C52.125 77.1418 51.5793 77.6875 50.9062 77.6875C50.2332 77.6875 49.6875 77.1418 49.6875 76.4688C49.6875 75.7957 50.2332 75.25 50.9062 75.25C51.5793 75.25 52.125 75.7957 52.125 76.4688Z" fill="#F8BC21"/>
<path d="M72.75 67.4688C72.75 68.1418 72.2043 68.6875 71.5312 68.6875C70.8582 68.6875 70.3125 68.1418 70.3125 67.4688C70.3125 66.7957 70.8582 66.25 71.5312 66.25C72.2043 66.25 72.75 66.7957 72.75 67.4688Z" fill="#F8BC21"/>
<path d="M71.3125 57.5938C71.3125 58.2668 70.7668 58.8125 70.0938 58.8125C69.4207 58.8125 68.875 58.2668 68.875 57.5938C68.875 56.9207 69.4207 56.375 70.0938 56.375C70.7668 56.375 71.3125 56.9207 71.3125 57.5938Z" fill="#F8BC21"/>
<path d="M75.4062 50.2188C75.4062 50.8918 74.8606 51.4375 74.1875 51.4375C73.5144 51.4375 72.9688 50.8918 72.9688 50.2188C72.9688 49.5457 73.5144 49 74.1875 49C74.8606 49 75.4062 49.5457 75.4062 50.2188Z" fill="#F8BC21"/>
<path fill-rule="evenodd" clip-rule="evenodd" d="M37.7799 34.127C38.4002 35.041 38.162 36.2847 37.248 36.9049C36.3844 37.4909 33.8889 39.7983 32.3475 43.516C31.9244 44.5363 30.7543 45.0205 29.734 44.5974C28.7136 44.1744 28.2294 43.0043 28.6525 41.9839C30.511 37.5016 33.5322 34.5923 35.002 33.595C35.916 32.9748 37.1597 33.2129 37.7799 34.127Z" fill="white"/>
<path fill-rule="evenodd" clip-rule="evenodd" d="M75.2416 64.1625C75.9803 64.5375 76.275 65.4404 75.9 66.179C74.9207 68.1078 72.4057 70.6818 68.1242 72.8623C63.8025 75.0633 57.6 76.9091 49.0979 77.3156C31.9945 78.1332 22.2392 70.593 19.3799 66.3364C18.9179 65.6487 19.1009 64.7167 19.7886 64.2548C20.4763 63.7929 21.4082 63.9759 21.8702 64.6635C24.0765 67.9481 32.7737 75.0925 48.9546 74.319C57.0947 73.9299 62.8714 72.1708 66.7628 70.189C70.6944 68.1867 72.6265 65.9997 73.225 64.8209C73.6001 64.0822 74.5029 63.7874 75.2416 64.1625Z" fill="#F33030"/>
<path fill-rule="evenodd" clip-rule="evenodd" d="M72.8139 34.4076C73.4862 34.8917 73.6389 35.8291 73.1548 36.5014C72.2184 37.8021 69.9786 39.3679 66.3649 40.6659C62.6841 41.988 57.4104 43.0944 50.1802 43.3381C35.701 43.8263 27.3426 39.3407 24.7888 36.6595C24.2175 36.0597 24.2406 35.1102 24.8405 34.5388C25.4403 33.9675 26.3898 33.9906 26.9612 34.5905C28.7336 36.4513 36.1335 40.81 50.0791 40.3398C57.0612 40.1044 62.0177 39.0397 65.3508 37.8425C68.7511 36.6212 70.3091 35.3195 70.7202 34.7486C71.2042 34.0763 72.1416 33.9236 72.8139 34.4076Z" fill="#F33030"/>
<path fill-rule="evenodd" clip-rule="evenodd" d="M60.6863 25.7808C61.3596 26.2633 61.5143 27.2004 61.0317 27.8738C60.4211 28.7259 59.0975 29.6043 57.1746 30.2981C55.1848 31.0161 52.3778 31.6016 48.5747 31.7304C40.9491 31.9887 36.3902 29.6246 34.8803 28.0321C34.3103 27.4309 34.3355 26.4815 34.9367 25.9115C35.5378 25.3415 36.4873 25.3668 37.0573 25.9679C37.7867 26.7372 41.385 28.9722 48.4731 28.7321C52.0269 28.6118 54.5154 28.0683 56.1564 27.4762C56.9773 27.18 57.5742 26.8759 57.9827 26.6156C58.1866 26.4856 58.3363 26.3711 58.4404 26.2798C58.4921 26.2345 58.5298 26.1974 58.5559 26.1695C58.5688 26.1557 58.5782 26.1449 58.5845 26.1373C58.5909 26.1296 58.5935 26.1259 58.5933 26.1262C59.0758 25.4529 60.0129 25.2982 60.6863 25.7808Z" fill="#F33030"/>
<path d="M41.5996 57.0934L45.2256 56.1677C45.3352 56.1397 45.4279 56.0666 45.4806 55.9664L46.6504 53.7444L47.5883 51.9629C47.7299 51.6939 48.108 51.675 48.2758 51.9285L50.7727 55.7016C50.8351 55.7959 50.9346 55.8594 51.0465 55.8763L54.7469 56.4354C55.0611 56.4829 55.1971 56.8602 54.9855 57.0973L52.1552 60.2678C52.067 60.3666 52.0334 60.5026 52.0656 60.6311L52.9587 64.2054C53.0395 64.5288 52.7125 64.8034 52.4079 64.6677L48.6664 63.0016C48.55 62.9497 48.4159 62.9565 48.3053 63.0196L44.7488 65.0511C44.4594 65.2165 44.1065 64.9759 44.1546 64.646L44.6864 61.0005C44.7055 60.8694 44.6585 60.7374 44.5609 60.6479L41.4282 57.7759C41.1939 57.5611 41.2916 57.1721 41.5996 57.0934Z" fill="#C31717"/>
<path fill-rule="evenodd" clip-rule="evenodd" d="M52.1552 60.2679C52.067 60.3667 52.0334 60.5027 52.0656 60.6312L52.9587 64.2055C53.0396 64.5289 52.7125 64.8035 52.4079 64.6678L48.6664 63.0017C48.55 62.9498 48.4159 62.9566 48.3053 63.0197L44.7488 65.0512C44.4594 65.2166 44.1065 64.976 44.1546 64.6461L44.6864 61.0006C44.7055 60.8695 44.6585 60.7375 44.5609 60.648L41.4282 57.776C41.1939 57.5612 41.2916 57.1722 41.5996 57.0935L45.2256 56.1678C45.3352 56.1398 45.4279 56.0667 45.4806 55.9665L47.5883 51.963C47.7299 51.694 48.108 51.6751 48.2758 51.9286L50.7727 55.7017C50.8351 55.796 50.9346 55.8595 51.0465 55.8764L54.7469 56.4355C55.0611 56.483 55.1972 56.8603 54.9855 57.0974L52.1552 60.2679ZM44.042 54.4058L41.1048 55.1557C39.2572 55.6274 38.6711 57.9615 40.0767 59.2502L42.5851 61.5499L42.1756 64.3574C41.8868 66.3368 44.004 67.78 45.7408 66.7879L48.5934 65.1585L51.5943 66.4949C53.4216 67.3086 55.384 65.6612 54.8991 63.7206L54.2112 60.968L56.4775 58.4293C57.7474 57.0067 56.9311 54.7428 55.0456 54.4579L52.0482 54.0051L49.9436 50.8249C48.937 49.3037 46.6683 49.4172 45.8185 51.0314L44.042 54.4058Z" fill="#FF4545"/>
<path d="M64.07 53.8976L66.4891 53.7225C66.602 53.7144 66.7061 53.6588 66.7757 53.5696L67.8525 52.1887L68.6233 51.2003C68.8102 50.9606 69.1857 51.0088 69.306 51.288L70.495 54.0472C70.5398 54.1511 70.6265 54.2312 70.7336 54.2676L73.03 55.0483C73.3309 55.1506 73.3981 55.546 73.1479 55.742L70.959 57.4558C70.8548 57.5375 70.7976 57.6655 70.8065 57.7976L70.9643 60.1434C70.9866 60.476 70.6162 60.6884 70.3404 60.5011L68.1492 59.0126C68.0439 58.9411 67.9107 58.924 67.7906 58.9666L65.2945 59.853C64.9803 59.9646 64.6756 59.6655 64.7812 59.3493L65.5266 57.1195C65.5686 56.9939 65.5457 56.8557 65.4654 56.7503L63.7807 54.5389C63.5881 54.2861 63.753 53.9205 64.07 53.8976Z" fill="#C31717"/>
<path fill-rule="evenodd" clip-rule="evenodd" d="M70.9642 60.1434C70.9866 60.476 70.6162 60.6884 70.3404 60.5011L68.1492 59.0127C68.0439 58.9411 67.9107 58.924 67.7906 58.9666L65.2945 59.8531C64.9803 59.9647 64.6755 59.6655 64.7812 59.3493L65.5266 57.1196C65.5686 56.9939 65.5457 56.8557 65.4654 56.7503L63.7807 54.539C63.5881 54.2862 63.753 53.9206 64.07 53.8976L66.4891 53.7226C66.602 53.7144 66.7061 53.6588 66.7757 53.5696L68.6233 51.2004C68.8102 50.9606 69.1857 51.0089 69.306 51.2881L70.495 54.0473C70.5398 54.1512 70.6265 54.2313 70.7336 54.2677L73.03 55.0483C73.3309 55.1506 73.3981 55.5461 73.1479 55.742L70.959 57.4559C70.8547 57.5375 70.7976 57.6655 70.8065 57.7976L70.9642 60.1434ZM65.6357 51.7791L63.9256 51.9028C62.0237 52.0404 61.0341 54.2342 62.1898 55.751L63.3613 57.2887L62.8844 58.7153C62.2503 60.6124 64.0789 62.4072 65.9638 61.7378L67.696 61.1226L69.2166 62.1555C70.8712 63.2795 73.0939 62.005 72.9597 60.0092L72.8588 58.5085L74.3809 57.3167C75.8823 56.1411 75.4792 53.7685 73.6737 53.1548L72.0504 52.6029L71.1428 50.4966C70.4209 48.8214 68.1679 48.532 67.0461 49.9705L65.6357 51.7791Z" fill="#FF4545"/>
<path d="M24.1684 55.7727L26.1246 54.3387C26.2158 54.2718 26.2745 54.1694 26.286 54.0569L26.4643 52.3148L26.5919 51.068C26.6229 50.7656 26.9666 50.6069 27.2169 50.7794L29.6904 52.4848C29.7836 52.549 29.8996 52.5708 30.0097 52.5447L32.3698 51.9855C32.6791 51.9123 32.9462 52.2115 32.8383 52.5105L31.895 55.1256C31.8501 55.2502 31.8697 55.3889 31.9475 55.4961L33.3278 57.3994C33.5235 57.6692 33.3226 58.0461 32.9894 58.0339L30.3423 57.9376C30.215 57.933 30.0931 57.9893 30.014 58.0892L28.3707 60.1667C28.1639 60.4282 27.7467 60.3367 27.6682 60.0127L27.1146 57.7278C27.0834 57.5991 26.9905 57.4942 26.8665 57.4476L24.2642 56.4697C23.9666 56.3579 23.912 55.9606 24.1684 55.7727Z" fill="#C31717"/>
<path fill-rule="evenodd" clip-rule="evenodd" d="M33.3278 57.3994C33.5235 57.6693 33.3226 58.0461 32.9894 58.034L30.3423 57.9377C30.215 57.933 30.0931 57.9893 30.014 58.0892L28.3707 60.1667C28.1639 60.4282 27.7467 60.3368 27.6682 60.0128L27.1146 57.7278C27.0834 57.5991 26.9905 57.4942 26.8665 57.4476L24.2642 56.4698C23.9666 56.358 23.912 55.9606 24.1684 55.7727L26.1246 54.3388C26.2158 54.2719 26.2745 54.1695 26.286 54.0569L26.5919 51.068C26.6229 50.7656 26.9666 50.6069 27.2169 50.7795L29.6904 52.4848C29.7836 52.5491 29.8996 52.5708 30.0097 52.5448L32.3698 51.9856C32.6791 51.9123 32.9462 52.2116 32.8383 52.5105L31.895 55.1256C31.8501 55.2502 31.8697 55.389 31.9475 55.4962L33.3278 57.3994ZM24.3688 53.146L22.986 54.1597C21.448 55.287 21.7756 57.6712 23.5607 58.342L25.3703 59.0219L25.7245 60.4838C26.1955 62.4278 28.6984 62.9763 29.9393 61.4075L31.0797 59.9658L32.9167 60.0327C34.9156 60.1054 36.1212 57.8445 34.9468 56.2252L34.0638 55.0076L34.7197 53.1892C35.3667 51.3954 33.7643 49.5998 31.9088 50.0395L30.2404 50.4347L28.3521 49.1329C26.8503 48.0975 24.7881 49.0497 24.6023 50.8644L24.3688 53.146Z" fill="#FF4545"/>
</svg>
